<svg width="13" height="15" viewBox="0 0 13 15" fill="none" xmlns="http://www.w3.org/2000/svg">
<path d="M10.3138 2.35C9.74717 1.69961 9.43486 0.864499 9.43495 0H6.87309V10.3333C6.85374 10.8927 6.61899 11.4226 6.21837 11.8112C5.81774 12.1999 5.28257 12.417 4.72576 12.4167C3.54847 12.4167 2.57015 11.45 2.57015 10.25C2.57015 8.81667 3.94643 7.74167 5.36416 8.18333V5.55C2.50383 5.16667 0 7.4 0 10.25C0 13.025 2.28827 15 4.71747 15C7.32079 15 9.43495 12.875 9.43495 10.25V5.00833C10.4738 5.75821 11.721 6.16054 13 6.15833V3.58333C13 3.58333 11.4413 3.65833 10.3138 2.35Z" fill="#E6E6E6"/>
</svg>
